<?xml version="1.0" encoding="utf-8"?>
<!-- Generator: Adobe Illustrator 25.2.1, SVG Export Plug-In . SVG Version: 6.00 Build 0)  -->
<svg version="1.1" id="Layer_1" xmlns="http://www.w3.org/2000/svg" xmlns:xlink="http://www.w3.org/1999/xlink" x="0px" y="0px"
	 viewBox="0 0 200 200" style="enable-background:new 0 0 200 200;" xml:space="preserve">
<style type="text/css">
	.st0{fill:#620D0E;}
	.st1{fill:#D22026;}
	.st2{fill:url(#path9350_1_);}
	.st3{fill:#A91E22;}
</style>
<g id="layer1">
	<g id="g2406">
		<path id="path9344" class="st0" d="M104.4,0.7c-1.1,0.2-2.2,0.5-3.2,1.1L16,50.5c-2.6,1.5-4.2,4.2-4.2,7.2v85.2
			c0,2.8,1.4,5.5,3.8,7l73,48.7c2.6,1.7,6,1.8,8.7,0.2l85.2-48.7c2.6-1.5,4.2-4.2,4.2-7.2V57.7c0-2.8-1.4-5.5-3.8-7L109.9,2
			C108.3,0.9,106.4,0.5,104.4,0.7L104.4,0.7z"/>
		<path id="path9348" class="st1" d="M29.3,62.6l64.6,43.1v75.4L29.3,138C29.3,138,29.3,62.6,29.3,62.6z"/>
		
			<linearGradient id="path9350_1_" gradientUnits="userSpaceOnUse" x1="90.4979" y1="109.313" x2="177.1797" y2="97.5532" gradientTransform="matrix(0.6441 0 0 -0.6441 4.4063 128.0735)">
			<stop  offset="0" style="stop-color:#EE2E2B"/>
			<stop  offset="1" style="stop-color:#B72025"/>
		</linearGradient>
		<path id="path9350" class="st2" d="M104.7,19.6l64.6,43.1l-75.4,43.1L29.3,62.6C29.3,62.6,104.7,19.6,104.7,19.6z"/>
		<path id="path9352" class="st3" d="M169.3,62.6V138l-75.4,43.1v-75.4C93.9,105.7,169.3,62.6,169.3,62.6z"/>
	</g>
</g>
</svg>
